# xmcd
#
# Track frame offsets: 
#        150
#        13003
#        24247
#        37070
#        49235
#        61582
#        73398
#        86455
#        100503
#        118536
#        131700
#
# Disc length: 1921 seconds
#
# Revision: 0
# Processed by: cddbd v1.5.2PL0 Copyright (c) Steve Scherf et al.
# Submitted via: ExactAudioCopy v0.95b3
#
DISCID=8c077f0b
DTITLE=Diana Ross and The Supremes  - Millennium Collection (Best Of) - 
DTITLE=Vol. 2
DYEAR=1900
DGENRE=
TTITLE0=Nothing But Heartaches
TTITLE1=My World Is Empty Without You
TTITLE2=Love Is Like An Itching In My
TTITLE3=Love Is Here And Now You're Go
TTITLE4=The Happening
TTITLE5=In And Out Of Love
TTITLE6=I'm Living In Shame
TTITLE7=Up The Ladder To The Roof
TTITLE8=Stoned Love
TTITLE9=Nathan Jones
TTITLE10=Floy Joy
EXTD=
EXTT0=
EXTT1=
EXTT2=
EXTT3=
EXTT4=
EXTT5=
EXTT6=
EXTT7=
EXTT8=
EXTT9=
EXTT10=
PLAYORDER=
